<?xml version="1.0" standalone="no"?>
<!DOCTYPE svg PUBLIC "-//W3C//DTD SVG 20010904//EN"
 "http://www.w3.org/TR/2001/REC-SVG-20010904/DTD/svg10.dtd">
<svg version="1.0" xmlns="http://www.w3.org/2000/svg"
 width="543.000000pt" height="543.000000pt" viewBox="0 0 543.000000 543.000000"
 preserveAspectRatio="xMidYMid meet">
<metadata>
Created by potrace 1.11, written by Peter Selinger 2001-2013
</metadata>
<g transform="translate(0.000000,543.000000) scale(0.100000,-0.100000)"
fill="#000000" stroke="none">
<path d="M2511 5415 c-41 -8 -86 -17 -100 -21 -14 -4 -28 -8 -31 -8 -3 -1 -9
-4 -15 -7 -5 -4 -23 -9 -39 -13 -65 -16 -244 -115 -325 -181 -35 -28 -130
-123 -166 -165 -83 -97 -191 -305 -211 -403 -2 -10 -5 -26 -8 -35 -23 -76 -32
-199 -31 -454 l0 -247 -30 -7 c-16 -3 -34 -9 -40 -13 -5 -4 -42 -19 -80 -34
l-71 -27 1 -858 0 -857 38 -19 c47 -22 287 -106 287 -100 0 3 8 0 18 -5 17 -9
212 -57 272 -67 14 -2 34 -6 45 -9 11 -2 43 -7 70 -11 28 -3 52 -8 55 -9 3 -2
37 -6 75 -10 39 -4 81 -8 95 -11 134 -21 642 -21 775 1 17 3 50 7 75 10 222
21 534 97 765 186 l100 39 0 860 0 860 -102 40 c-56 22 -105 40 -110 40 -5 0
-8 114 -8 253 0 138 -3 275 -7 302 -17 114 -20 130 -23 136 -2 3 -6 19 -9 35
-9 51 -73 203 -116 276 -158 265 -413 450 -725 524 -91 22 -324 26 -424 9z
m329 -429 c146 -24 331 -147 421 -281 101 -149 122 -236 123 -518 l1 -189 -54
7 c-31 4 -62 8 -71 10 -9 2 -43 6 -75 10 -33 4 -71 9 -85 11 -112 17 -429 22
-645 9 -186 -11 -192 -11 -271 -24 -38 -6 -86 -13 -106 -16 -21 -2 -43 -6 -50
-7 -10 -2 -13 39 -13 182 -1 233 7 288 56 406 17 40 37 78 45 85 8 6 14 18 14
25 0 7 35 49 78 92 104 106 236 178 370 202 48 9 199 6 262 -4z m-17 -1526
c161 -76 201 -305 74 -433 l-32 -32 0 -245 c-1 -242 -1 -245 -25 -281 -70
-106 -235 -98 -289 14 -19 39 -20 60 -20 275 l1 233 -30 33 c-72 80 -96 192
-62 291 18 53 104 138 161 158 61 21 161 15 222 -13z"/>
<path d="M1420 4595 c-129 -46 -965 -318 -980 -319 -14 0 -15 -70 -15 -596 0
-327 4 -601 8 -607 5 -8 3 -13 -5 -13 -10 0 -10 -2 -1 -8 6 -4 19 -52 28 -107
19 -125 83 -384 131 -535 70 -224 214 -557 320 -740 146 -253 287 -454 463
-660 113 -132 445 -454 499 -484 9 -5 22 -15 27 -22 6 -6 51 -41 100 -78 50
-36 95 -70 102 -76 14 -12 180 -121 208 -136 11 -7 79 -46 152 -88 73 -42 135
-76 138 -76 3 0 23 -11 45 -25 22 -14 47 -25 57 -25 23 0 266 134 431 237 182
114 378 260 522 388 128 114 404 402 449 469 8 11 18 23 21 26 26 20 310 426
310 444 0 2 17 33 38 67 77 126 184 349 246 509 21 52 41 104 46 115 18 40
107 325 116 372 1 7 9 40 18 75 19 76 68 327 68 348 0 8 4 42 8 75 35 244 40
567 15 875 -3 36 -7 90 -9 120 -3 30 -6 74 -7 98 -2 23 -8 46 -13 51 -10 7
-193 71 -221 77 -23 5 -541 176 -555 183 -9 5 -31 12 -50 16 -19 4 -39 10 -45
13 -5 4 -14 7 -20 8 -5 1 -45 14 -87 28 -42 14 -80 26 -83 26 -7 0 -5 -17 10
-90 7 -32 17 -150 19 -214 1 -32 6 -52 16 -58 14 -8 206 -74 242 -83 12 -3
420 -134 465 -150 8 -2 16 -196 17 -375 1 -188 -9 -424 -19 -440 -1 -3 -6 -34
-9 -70 -8 -79 -40 -256 -67 -365 -11 -44 -22 -91 -25 -105 -3 -13 -24 -81 -46
-150 -157 -485 -373 -873 -713 -1285 -45 -55 -297 -309 -365 -369 -25 -22 -85
-71 -135 -110 -49 -39 -92 -73 -95 -76 -3 -4 -27 -21 -55 -40 -27 -18 -82 -55
-122 -82 -39 -26 -76 -48 -81 -48 -6 0 -12 -3 -14 -7 -7 -17 -199 -123 -222
-123 -17 0 -155 79 -248 142 -31 21 -62 38 -67 38 -6 0 -11 4 -11 8 0 4 -15
16 -32 27 -18 10 -67 44 -108 74 -71 52 -83 61 -113 86 -7 6 -46 37 -87 70
-78 62 -330 309 -414 405 -262 301 -536 769 -665 1140 -13 36 -27 74 -31 85
-39 97 -109 382 -139 560 -37 222 -46 339 -46 615 0 198 9 390 18 395 3 2 181
59 187 60 3 1 118 38 255 84 138 46 256 84 263 84 14 0 13 0 17 82 4 90 14
185 25 230 16 66 18 65 -80 30z"/>
</g>
</svg>
